<svg xmlns="http://www.w3.org/2000/svg" width="1400" height="1180" viewBox="0 0 1400 1180"><rect width="100%" height="100%" fill="#181B1B"/><g stroke="#5E6663" stroke-width="2" opacity=".55"><path d="M100,100V1080"/><path d="M200,100V1080"/><path d="M300,100V1080"/><path d="M400,100V1080"/><path d="M500,100V1080"/><path d="M600,100V1080"/><path d="M700,100V1080"/><path d="M800,100V1080"/><path d="M900,100V1080"/><path d="M1000,100V1080"/><path d="M1100,100V1080"/><path d="M1200,100V1080"/><path d="M1300,100V1080"/><path d="M100,100H1300"/><path d="M100,198H1300"/><path d="M100,296H1300"/><path d="M100,394H1300"/><path d="M100,492H1300"/><path d="M100,590H1300"/><path d="M100,688H1300"/><path d="M100,786H1300"/><path d="M100,884H1300"/><path d="M100,982H1300"/><path d="M100,1080H1300"/></g><path d="M530,590H870M700,420V760" stroke="#EBE7DF" stroke-width="6" fill="none"/><text x="150" y="230" font-family="'Bebas Neue'" font-size="120" font-weight="400" fill="#EBE7DF" text-anchor="start" letter-spacing="0">KPT</text><text x="150" y="1000" font-family="'Space Mono'" font-size="34" font-weight="400" fill="#EBE7DF" text-anchor="start" letter-spacing="6">WORK IN PROGRESS</text><path d="M1050,1000H1240" stroke="#E36F48" stroke-width="8"/><path d="M1060,985L1040,1000L1060,1015" stroke="#E36F48" stroke-width="8" fill="none"/></svg>