<svg xmlns="http://www.w3.org/2000/svg" width="600" height="600" viewBox="0 0 600 600" role="img"><title>Object Studies sticker 02 / separate artwork</title><rect width="600" height="600" fill="none"/><circle cx="300.000" cy="300.000" r="268.000" fill="#181B1B"/><circle cx="367.000" cy="196.000" r="83.000" fill="#E36F48"/><path d="M345.900,310.000 L345.872,311.146 L345.788,312.292 L345.649,313.434 L345.453,314.572 L345.203,315.704 L344.897,316.830 L344.537,317.947 L344.122,319.055 L343.653,320.151 L343.132,321.235 L342.558,322.306 L341.932,323.361 L341.255,324.400 L340.527,325.422 L339.751,326.425 L338.925,327.408 L338.053,328.369 L337.134,329.309 L336.170,330.224 L335.161,331.116 L334.110,331.981 L333.018,332.820 L331.885,333.630 L330.713,334.412 L329.504,335.165 L328.259,335.886 L326.979,336.576 L325.667,337.234 L324.323,337.858 L322.950,338.449 L321.549,339.005 L320.121,339.525 L318.669,340.010 L317.194,340.458 L315.699,340.869 L314.184,341.242 L312.652,341.577 L311.104,341.874 L309.543,342.132 L307.970,342.351 L306.388,342.530 L304.798,342.670 L303.202,342.770 L301.602,342.830 L300.000,342.850 L298.398,342.830 L296.798,342.770 L295.202,342.670 L293.612,342.530 L292.030,342.351 L290.457,342.132 L288.896,341.874 L287.348,341.577 L285.816,341.242 L284.301,340.869 L282.806,340.458 L281.331,340.010 L279.879,339.525 L278.451,339.005 L277.050,338.449 L275.677,337.858 L274.333,337.234 L273.021,336.576 L271.741,335.886 L270.496,335.165 L269.287,334.412 L268.115,333.630 L266.982,332.820 L265.890,331.981 L264.839,331.116 L263.830,330.224 L262.866,329.309 L261.947,328.369 L261.075,327.408 L260.249,326.425 L259.473,325.422 L258.745,324.400 L258.068,323.361 L257.442,322.306 L256.868,321.235 L256.347,320.151 L255.878,319.055 L255.463,317.947 L255.103,316.830 L254.797,315.704 L254.547,314.572 L254.351,313.434 L254.212,312.292 L254.128,311.146 L254.100,310.000 L254.128,308.854 L254.212,307.708 L254.351,306.566 L254.547,305.428 L254.797,304.296 L255.103,303.170 L255.463,302.053 L255.878,300.945 L256.347,299.849 L256.868,298.765 L257.442,297.694 L258.068,296.639 L258.745,295.600 L259.473,294.578 L260.249,293.575 L261.075,292.592 L261.947,291.631 L262.866,290.691 L263.830,289.776 L264.839,288.884 L265.890,288.019 L266.982,287.180 L268.115,286.370 L269.287,285.588 L270.496,284.835 L271.741,284.114 L273.021,283.424 L274.333,282.766 L275.677,282.142 L277.050,281.551 L278.451,280.995 L279.879,280.475 L281.331,279.990 L282.806,279.542 L284.301,279.131 L285.816,278.758 L287.348,278.423 L288.896,278.126 L290.457,277.868 L292.030,277.649 L293.612,277.470 L295.202,277.330 L296.798,277.230 L298.398,277.170 L300.000,277.150 L301.602,277.170 L303.202,277.230 L304.798,277.330 L306.388,277.470 L307.970,277.649 L309.543,277.868 L311.104,278.126 L312.652,278.423 L314.184,278.758 L315.699,279.131 L317.194,279.542 L318.669,279.990 L320.121,280.475 L321.549,280.995 L322.950,281.551 L324.323,282.142 L325.667,282.766 L326.979,283.424 L328.259,284.114 L329.504,284.835 L330.713,285.588 L331.885,286.370 L333.018,287.180 L334.110,288.019 L335.161,288.884 L336.170,289.776 L337.134,290.691 L338.053,291.631 L338.925,292.592 L339.751,293.575 L340.527,294.578 L341.255,295.600 L341.932,296.639 L342.558,297.694 L343.132,298.765 L343.653,299.849 L344.122,300.945 L344.537,302.053 L344.897,303.170 L345.203,304.296 L345.453,305.428 L345.649,306.566 L345.788,307.708 L345.872,308.854 L345.900,310.000 Z" fill="none" stroke="#EBE7DF" stroke-width="2.7" stroke-linecap="round" stroke-linejoin="round"/><path d="M358.140,310.000 L358.105,311.452 L357.998,312.903 L357.822,314.349 L357.574,315.791 L357.257,317.226 L356.870,318.651 L356.413,320.066 L355.888,321.469 L355.294,322.858 L354.634,324.231 L353.906,325.587 L353.114,326.924 L352.256,328.241 L351.335,329.535 L350.351,330.805 L349.306,332.050 L348.200,333.268 L347.036,334.458 L345.815,335.618 L344.538,336.746 L343.206,337.843 L341.822,338.905 L340.387,339.932 L338.903,340.922 L337.372,341.875 L335.795,342.789 L334.174,343.663 L332.511,344.496 L330.810,345.287 L329.070,346.035 L327.295,346.739 L325.487,347.399 L323.648,348.013 L321.780,348.580 L319.885,349.101 L317.966,349.573 L316.026,349.998 L314.065,350.374 L312.088,350.701 L310.096,350.978 L308.092,351.205 L306.077,351.382 L304.056,351.509 L302.029,351.585 L300.000,351.610 L297.971,351.585 L295.944,351.509 L293.923,351.382 L291.908,351.205 L289.904,350.978 L287.912,350.701 L285.935,350.374 L283.974,349.998 L282.034,349.573 L280.115,349.101 L278.220,348.580 L276.352,348.013 L274.513,347.399 L272.705,346.739 L270.930,346.035 L269.190,345.287 L267.489,344.496 L265.826,343.663 L264.205,342.789 L262.628,341.875 L261.097,340.922 L259.613,339.932 L258.178,338.905 L256.794,337.843 L255.462,336.746 L254.185,335.618 L252.964,334.458 L251.800,333.268 L250.694,332.050 L249.649,330.805 L248.665,329.535 L247.744,328.241 L246.886,326.924 L246.094,325.587 L245.366,324.231 L244.706,322.858 L244.112,321.469 L243.587,320.066 L243.130,318.651 L242.743,317.226 L242.426,315.791 L242.178,314.349 L242.002,312.903 L241.895,311.452 L241.860,310.000 L241.895,308.548 L242.002,307.097 L242.178,305.651 L242.426,304.209 L242.743,302.774 L243.130,301.349 L243.587,299.934 L244.112,298.531 L244.706,297.142 L245.366,295.769 L246.094,294.413 L246.886,293.076 L247.744,291.759 L248.665,290.465 L249.649,289.195 L250.694,287.950 L251.800,286.732 L252.964,285.542 L254.185,284.382 L255.462,283.254 L256.794,282.157 L258.178,281.095 L259.613,280.068 L261.097,279.078 L262.628,278.125 L264.205,277.211 L265.826,276.337 L267.489,275.504 L269.190,274.713 L270.930,273.965 L272.705,273.261 L274.513,272.601 L276.352,271.987 L278.220,271.420 L280.115,270.899 L282.034,270.427 L283.974,270.002 L285.935,269.626 L287.912,269.299 L289.904,269.022 L291.908,268.795 L293.923,268.618 L295.944,268.491 L297.971,268.415 L300.000,268.390 L302.029,268.415 L304.056,268.491 L306.077,268.618 L308.092,268.795 L310.096,269.022 L312.088,269.299 L314.065,269.626 L316.026,270.002 L317.966,270.427 L319.885,270.899 L321.780,271.420 L323.648,271.987 L325.487,272.601 L327.295,273.261 L329.070,273.965 L330.810,274.713 L332.511,275.504 L334.174,276.337 L335.795,277.211 L337.372,278.125 L338.903,279.078 L340.387,280.068 L341.822,281.095 L343.206,282.157 L344.538,283.254 L345.815,284.382 L347.036,285.542 L348.200,286.732 L349.306,287.950 L350.351,289.195 L351.335,290.465 L352.256,291.759 L353.114,293.076 L353.906,294.413 L354.634,295.769 L355.294,297.142 L355.888,298.531 L356.413,299.934 L356.870,301.349 L357.257,302.774 L357.574,304.209 L357.822,305.651 L357.998,307.097 L358.105,308.548 L358.140,310.000 Z" fill="none" stroke="#EBE7DF" stroke-width="2.7" stroke-linecap="round" stroke-linejoin="round"/><path d="M370.380,310.000 L370.337,311.758 L370.209,313.514 L369.994,315.265 L369.695,317.010 L369.311,318.747 L368.842,320.473 L368.289,322.186 L367.654,323.884 L366.935,325.565 L366.136,327.228 L365.255,328.869 L364.295,330.487 L363.257,332.081 L362.142,333.647 L360.951,335.185 L359.686,336.692 L358.348,338.167 L356.939,339.607 L355.460,341.011 L353.914,342.377 L352.303,343.704 L350.627,344.990 L348.890,346.233 L347.093,347.432 L345.239,348.586 L343.330,349.692 L341.368,350.750 L339.356,351.759 L337.296,352.716 L335.190,353.622 L333.041,354.474 L330.853,355.272 L328.626,356.015 L326.365,356.702 L324.071,357.332 L321.749,357.905 L319.399,358.419 L317.026,358.874 L314.633,359.269 L312.221,359.605 L309.795,359.880 L307.357,360.094 L304.909,360.247 L302.456,360.339 L300.000,360.370 L297.544,360.339 L295.091,360.247 L292.643,360.094 L290.205,359.880 L287.779,359.605 L285.367,359.269 L282.974,358.874 L280.601,358.419 L278.251,357.905 L275.929,357.332 L273.635,356.702 L271.374,356.015 L269.147,355.272 L266.959,354.474 L264.810,353.622 L262.704,352.716 L260.644,351.759 L258.632,350.750 L256.670,349.692 L254.761,348.586 L252.907,347.432 L251.110,346.233 L249.373,344.990 L247.697,343.704 L246.086,342.377 L244.540,341.011 L243.061,339.607 L241.652,338.167 L240.314,336.692 L239.049,335.185 L237.858,333.647 L236.743,332.081 L235.705,330.487 L234.745,328.869 L233.864,327.228 L233.065,325.565 L232.346,323.884 L231.711,322.186 L231.158,320.473 L230.689,318.747 L230.305,317.010 L230.006,315.265 L229.791,313.514 L229.663,311.758 L229.620,310.000 L229.663,308.242 L229.791,306.486 L230.006,304.735 L230.305,302.990 L230.689,301.253 L231.158,299.527 L231.711,297.814 L232.346,296.116 L233.065,294.435 L233.864,292.772 L234.745,291.131 L235.705,289.513 L236.743,287.919 L237.858,286.353 L239.049,284.815 L240.314,283.308 L241.652,281.833 L243.061,280.393 L244.540,278.989 L246.086,277.623 L247.697,276.296 L249.373,275.010 L251.110,273.767 L252.907,272.568 L254.761,271.414 L256.670,270.308 L258.632,269.250 L260.644,268.241 L262.704,267.284 L264.810,266.378 L266.959,265.526 L269.147,264.728 L271.374,263.985 L273.635,263.298 L275.929,262.668 L278.251,262.095 L280.601,261.581 L282.974,261.126 L285.367,260.731 L287.779,260.395 L290.205,260.120 L292.643,259.906 L295.091,259.753 L297.544,259.661 L300.000,259.630 L302.456,259.661 L304.909,259.753 L307.357,259.906 L309.795,260.120 L312.221,260.395 L314.633,260.731 L317.026,261.126 L319.399,261.581 L321.749,262.095 L324.071,262.668 L326.365,263.298 L328.626,263.985 L330.853,264.728 L333.041,265.526 L335.190,266.378 L337.296,267.284 L339.356,268.241 L341.368,269.250 L343.330,270.308 L345.239,271.414 L347.093,272.568 L348.890,273.767 L350.627,275.010 L352.303,276.296 L353.914,277.623 L355.460,278.989 L356.939,280.393 L358.348,281.833 L359.686,283.308 L360.951,284.815 L362.142,286.353 L363.257,287.919 L364.295,289.513 L365.255,291.131 L366.136,292.772 L366.935,294.435 L367.654,296.116 L368.289,297.814 L368.842,299.527 L369.311,301.253 L369.695,302.990 L369.994,304.735 L370.209,306.486 L370.337,308.242 L370.380,310.000 Z" fill="none" stroke="#EBE7DF" stroke-width="2.7" stroke-linecap="round" stroke-linejoin="round"/><path d="M382.620,310.000 L382.570,312.064 L382.419,314.125 L382.167,316.181 L381.816,318.229 L381.365,320.268 L380.815,322.294 L380.166,324.305 L379.419,326.298 L378.576,328.272 L377.637,330.224 L376.604,332.150 L375.477,334.050 L374.258,335.921 L372.949,337.760 L371.551,339.565 L370.066,341.334 L368.495,343.065 L366.841,344.756 L365.105,346.404 L363.291,348.008 L361.399,349.566 L359.432,351.075 L357.393,352.535 L355.284,353.942 L353.107,355.296 L350.866,356.595 L348.563,357.837 L346.201,359.021 L343.782,360.145 L341.310,361.208 L338.788,362.209 L336.218,363.146 L333.605,364.018 L330.950,364.824 L328.258,365.564 L325.531,366.236 L322.773,366.839 L319.988,367.374 L317.178,367.838 L314.347,368.232 L311.498,368.555 L308.636,368.806 L305.763,368.986 L302.883,369.094 L300.000,369.130 L297.117,369.094 L294.237,368.986 L291.364,368.806 L288.502,368.555 L285.653,368.232 L282.822,367.838 L280.012,367.374 L277.227,366.839 L274.469,366.236 L271.742,365.564 L269.050,364.824 L266.395,364.018 L263.782,363.146 L261.212,362.209 L258.690,361.208 L256.218,360.145 L253.799,359.021 L251.437,357.837 L249.134,356.595 L246.893,355.296 L244.716,353.942 L242.607,352.535 L240.568,351.075 L238.601,349.566 L236.709,348.008 L234.895,346.404 L233.159,344.756 L231.505,343.065 L229.934,341.334 L228.449,339.565 L227.051,337.760 L225.742,335.921 L224.523,334.050 L223.396,332.150 L222.363,330.224 L221.424,328.272 L220.581,326.298 L219.834,324.305 L219.185,322.294 L218.635,320.268 L218.184,318.229 L217.833,316.181 L217.581,314.125 L217.430,312.064 L217.380,310.000 L217.430,307.936 L217.581,305.875 L217.833,303.819 L218.184,301.771 L218.635,299.732 L219.185,297.706 L219.834,295.695 L220.581,293.702 L221.424,291.728 L222.363,289.776 L223.396,287.850 L224.523,285.950 L225.742,284.079 L227.051,282.240 L228.449,280.435 L229.934,278.666 L231.505,276.935 L233.159,275.244 L234.895,273.596 L236.709,271.992 L238.601,270.434 L240.568,268.925 L242.607,267.465 L244.716,266.058 L246.893,264.704 L249.134,263.405 L251.437,262.163 L253.799,260.979 L256.218,259.855 L258.690,258.792 L261.212,257.791 L263.782,256.854 L266.395,255.982 L269.050,255.176 L271.742,254.436 L274.469,253.764 L277.227,253.161 L280.012,252.626 L282.822,252.162 L285.653,251.768 L288.502,251.445 L291.364,251.194 L294.237,251.014 L297.117,250.906 L300.000,250.870 L302.883,250.906 L305.763,251.014 L308.636,251.194 L311.498,251.445 L314.347,251.768 L317.178,252.162 L319.988,252.626 L322.773,253.161 L325.531,253.764 L328.258,254.436 L330.950,255.176 L333.605,255.982 L336.218,256.854 L338.788,257.791 L341.310,258.792 L343.782,259.855 L346.201,260.979 L348.563,262.163 L350.866,263.405 L353.107,264.704 L355.284,266.058 L357.393,267.465 L359.432,268.925 L361.399,270.434 L363.291,271.992 L365.105,273.596 L366.841,275.244 L368.495,276.935 L370.066,278.666 L371.551,280.435 L372.949,282.240 L374.258,284.079 L375.477,285.950 L376.604,287.850 L377.637,289.776 L378.576,291.728 L379.419,293.702 L380.166,295.695 L380.815,297.706 L381.365,299.732 L381.816,301.771 L382.167,303.819 L382.419,305.875 L382.570,307.936 L382.620,310.000 Z" fill="none" stroke="#EBE7DF" stroke-width="2.7" stroke-linecap="round" stroke-linejoin="round"/><path d="M394.860,310.000 L394.802,312.369 L394.629,314.736 L394.340,317.096 L393.937,319.448 L393.419,321.789 L392.787,324.115 L392.042,326.424 L391.185,328.713 L390.217,330.979 L389.139,333.220 L387.953,335.432 L386.659,337.613 L385.260,339.761 L383.756,341.872 L382.151,343.945 L380.446,345.976 L378.643,347.964 L376.743,349.905 L374.751,351.797 L372.667,353.639 L370.495,355.427 L368.237,357.160 L365.895,358.836 L363.474,360.452 L360.975,362.007 L358.402,363.498 L355.757,364.924 L353.045,366.283 L350.268,367.574 L347.430,368.794 L344.534,369.943 L341.584,371.019 L338.583,372.021 L335.535,372.947 L332.444,373.796 L329.313,374.567 L326.147,375.260 L322.949,375.873 L319.723,376.406 L316.472,376.859 L313.202,377.229 L309.916,377.518 L306.617,377.725 L303.311,377.849 L300.000,377.890 L296.689,377.849 L293.383,377.725 L290.084,377.518 L286.798,377.229 L283.528,376.859 L280.277,376.406 L277.051,375.873 L273.853,375.260 L270.687,374.567 L267.556,373.796 L264.465,372.947 L261.417,372.021 L258.416,371.019 L255.466,369.943 L252.570,368.794 L249.732,367.574 L246.955,366.283 L244.243,364.924 L241.598,363.498 L239.025,362.007 L236.526,360.452 L234.105,358.836 L231.763,357.160 L229.505,355.427 L227.333,353.639 L225.249,351.797 L223.257,349.905 L221.357,347.964 L219.554,345.976 L217.849,343.945 L216.244,341.872 L214.740,339.761 L213.341,337.613 L212.047,335.432 L210.861,333.220 L209.783,330.979 L208.815,328.713 L207.958,326.424 L207.213,324.115 L206.581,321.789 L206.063,319.448 L205.660,317.096 L205.371,314.736 L205.198,312.369 L205.140,310.000 L205.198,307.631 L205.371,305.264 L205.660,302.904 L206.063,300.552 L206.581,298.211 L207.213,295.885 L207.958,293.576 L208.815,291.287 L209.783,289.021 L210.861,286.780 L212.047,284.568 L213.341,282.387 L214.740,280.239 L216.244,278.128 L217.849,276.055 L219.554,274.024 L221.357,272.036 L223.257,270.095 L225.249,268.203 L227.333,266.361 L229.505,264.573 L231.763,262.840 L234.105,261.164 L236.526,259.548 L239.025,257.993 L241.598,256.502 L244.243,255.076 L246.955,253.717 L249.732,252.426 L252.570,251.206 L255.466,250.057 L258.416,248.981 L261.417,247.979 L264.465,247.053 L267.556,246.204 L270.687,245.433 L273.853,244.740 L277.051,244.127 L280.277,243.594 L283.528,243.141 L286.798,242.771 L290.084,242.482 L293.383,242.275 L296.689,242.151 L300.000,242.110 L303.311,242.151 L306.617,242.275 L309.916,242.482 L313.202,242.771 L316.472,243.141 L319.723,243.594 L322.949,244.127 L326.147,244.740 L329.313,245.433 L332.444,246.204 L335.535,247.053 L338.583,247.979 L341.584,248.981 L344.534,250.057 L347.430,251.206 L350.268,252.426 L353.045,253.717 L355.757,255.076 L358.402,256.502 L360.975,257.993 L363.474,259.548 L365.895,261.164 L368.237,262.840 L370.495,264.573 L372.667,266.361 L374.751,268.203 L376.743,270.095 L378.643,272.036 L380.446,274.024 L382.151,276.055 L383.756,278.128 L385.260,280.239 L386.659,282.387 L387.953,284.568 L389.139,286.780 L390.217,289.021 L391.185,291.287 L392.042,293.576 L392.787,295.885 L393.419,298.211 L393.937,300.552 L394.340,302.904 L394.629,305.264 L394.802,307.631 L394.860,310.000 Z" fill="none" stroke="#EBE7DF" stroke-width="2.7" stroke-linecap="round" stroke-linejoin="round"/><path d="M407.100,310.000 L407.035,312.675 L406.839,315.347 L406.513,318.012 L406.058,320.668 L405.473,323.310 L404.760,325.936 L403.919,328.543 L402.951,331.128 L401.858,333.686 L400.641,336.216 L399.301,338.714 L397.841,341.176 L396.261,343.601 L394.564,345.985 L392.751,348.325 L390.826,350.618 L388.790,352.862 L386.646,355.054 L384.396,357.190 L382.043,359.270 L379.591,361.289 L377.041,363.246 L374.398,365.137 L371.664,366.962 L368.843,368.717 L365.937,370.401 L362.952,372.011 L359.890,373.546 L356.754,375.003 L353.550,376.381 L350.280,377.678 L346.950,378.893 L343.561,380.023 L340.120,381.069 L336.630,382.027 L333.096,382.898 L329.521,383.681 L325.910,384.373 L322.267,384.975 L318.598,385.486 L314.905,385.904 L311.195,386.230 L307.471,386.463 L303.738,386.603 L300.000,386.650 L296.262,386.603 L292.529,386.463 L288.805,386.230 L285.095,385.904 L281.402,385.486 L277.733,384.975 L274.090,384.373 L270.479,383.681 L266.904,382.898 L263.370,382.027 L259.880,381.069 L256.439,380.023 L253.050,378.893 L249.720,377.678 L246.450,376.381 L243.246,375.003 L240.110,373.546 L237.048,372.011 L234.063,370.401 L231.157,368.717 L228.336,366.962 L225.602,365.137 L222.959,363.246 L220.409,361.289 L217.957,359.270 L215.604,357.190 L213.354,355.054 L211.210,352.862 L209.174,350.618 L207.249,348.325 L205.436,345.985 L203.739,343.601 L202.159,341.176 L200.699,338.714 L199.359,336.216 L198.142,333.686 L197.049,331.128 L196.081,328.543 L195.240,325.936 L194.527,323.310 L193.942,320.668 L193.487,318.012 L193.161,315.347 L192.965,312.675 L192.900,310.000 L192.965,307.325 L193.161,304.653 L193.487,301.988 L193.942,299.332 L194.527,296.690 L195.240,294.064 L196.081,291.457 L197.049,288.872 L198.142,286.314 L199.359,283.784 L200.699,281.286 L202.159,278.824 L203.739,276.399 L205.436,274.015 L207.249,271.675 L209.174,269.382 L211.210,267.138 L213.354,264.946 L215.604,262.810 L217.957,260.730 L220.409,258.711 L222.959,256.754 L225.602,254.863 L228.336,253.038 L231.157,251.283 L234.063,249.599 L237.048,247.989 L240.110,246.454 L243.246,244.997 L246.450,243.619 L249.720,242.322 L253.050,241.107 L256.439,239.977 L259.880,238.931 L263.370,237.973 L266.904,237.102 L270.479,236.319 L274.090,235.627 L277.733,235.025 L281.402,234.514 L285.095,234.096 L288.805,233.770 L292.529,233.537 L296.262,233.397 L300.000,233.350 L303.738,233.397 L307.471,233.537 L311.195,233.770 L314.905,234.096 L318.598,234.514 L322.267,235.025 L325.910,235.627 L329.521,236.319 L333.096,237.102 L336.630,237.973 L340.120,238.931 L343.561,239.977 L346.950,241.107 L350.280,242.322 L353.550,243.619 L356.754,244.997 L359.890,246.454 L362.952,247.989 L365.937,249.599 L368.843,251.283 L371.664,253.038 L374.398,254.863 L377.041,256.754 L379.591,258.711 L382.043,260.730 L384.396,262.810 L386.646,264.946 L388.790,267.138 L390.826,269.382 L392.751,271.675 L394.564,274.015 L396.261,276.399 L397.841,278.824 L399.301,281.286 L400.641,283.784 L401.858,286.314 L402.951,288.872 L403.919,291.457 L404.760,294.064 L405.473,296.690 L406.058,299.332 L406.513,301.988 L406.839,304.653 L407.035,307.325 L407.100,310.000 Z" fill="none" stroke="#EBE7DF" stroke-width="2.7" stroke-linecap="round" stroke-linejoin="round"/><path d="M419.340,310.000 L419.267,312.981 L419.049,315.958 L418.686,318.928 L418.179,321.887 L417.527,324.831 L416.732,327.758 L415.795,330.663 L414.717,333.542 L413.499,336.393 L412.143,339.212 L410.650,341.995 L409.023,344.739 L407.262,347.441 L405.371,350.098 L403.351,352.705 L401.206,355.260 L398.937,357.761 L396.548,360.203 L394.041,362.584 L391.420,364.900 L388.687,367.150 L385.846,369.331 L382.901,371.439 L379.854,373.472 L376.710,375.428 L373.473,377.304 L370.146,379.098 L366.734,380.808 L363.241,382.432 L359.670,383.967 L356.027,385.413 L352.315,386.766 L348.540,388.026 L344.706,389.191 L340.817,390.259 L336.878,391.230 L332.895,392.101 L328.871,392.873 L324.812,393.544 L320.723,394.112 L316.609,394.579 L312.474,394.942 L308.325,395.202 L304.165,395.358 L300.000,395.410 L295.835,395.358 L291.675,395.202 L287.526,394.942 L283.391,394.579 L279.277,394.112 L275.188,393.544 L271.129,392.873 L267.105,392.101 L263.122,391.230 L259.183,390.259 L255.294,389.191 L251.460,388.026 L247.685,386.766 L243.973,385.413 L240.330,383.967 L236.759,382.432 L233.266,380.808 L229.854,379.098 L226.527,377.304 L223.290,375.428 L220.146,373.472 L217.099,371.439 L214.154,369.331 L211.313,367.150 L208.580,364.900 L205.959,362.584 L203.452,360.203 L201.063,357.761 L198.794,355.260 L196.649,352.705 L194.629,350.098 L192.738,347.441 L190.977,344.739 L189.350,341.995 L187.857,339.212 L186.501,336.393 L185.283,333.542 L184.205,330.663 L183.268,327.758 L182.473,324.831 L181.821,321.887 L181.314,318.928 L180.951,315.958 L180.733,312.981 L180.660,310.000 L180.733,307.019 L180.951,304.042 L181.314,301.072 L181.821,298.113 L182.473,295.169 L183.268,292.242 L184.205,289.337 L185.283,286.458 L186.501,283.607 L187.857,280.788 L189.350,278.005 L190.977,275.261 L192.738,272.559 L194.629,269.902 L196.649,267.295 L198.794,264.740 L201.063,262.239 L203.452,259.797 L205.959,257.416 L208.580,255.100 L211.313,252.850 L214.154,250.669 L217.099,248.561 L220.146,246.528 L223.290,244.572 L226.527,242.696 L229.854,240.902 L233.266,239.192 L236.759,237.568 L240.330,236.033 L243.973,234.587 L247.685,233.234 L251.460,231.974 L255.294,230.809 L259.183,229.741 L263.122,228.770 L267.105,227.899 L271.129,227.127 L275.188,226.456 L279.277,225.888 L283.391,225.421 L287.526,225.058 L291.675,224.798 L295.835,224.642 L300.000,224.590 L304.165,224.642 L308.325,224.798 L312.474,225.058 L316.609,225.421 L320.723,225.888 L324.812,226.456 L328.871,227.127 L332.895,227.899 L336.878,228.770 L340.817,229.741 L344.706,230.809 L348.540,231.974 L352.315,233.234 L356.027,234.587 L359.670,236.033 L363.241,237.568 L366.734,239.192 L370.146,240.902 L373.473,242.696 L376.710,244.572 L379.854,246.528 L382.901,248.561 L385.846,250.669 L388.687,252.850 L391.420,255.100 L394.041,257.416 L396.548,259.797 L398.937,262.239 L401.206,264.740 L403.351,267.295 L405.371,269.902 L407.262,272.559 L409.023,275.261 L410.650,278.005 L412.143,280.788 L413.499,283.607 L414.717,286.458 L415.795,289.337 L416.732,292.242 L417.527,295.169 L418.179,298.113 L418.686,301.072 L419.049,304.042 L419.267,307.019 L419.340,310.000 Z" fill="none" stroke="#EBE7DF" stroke-width="2.7" stroke-linecap="round" stroke-linejoin="round"/><path d="M431.580,310.000 L431.500,313.286 L431.259,316.569 L430.859,319.843 L430.299,323.106 L429.581,326.352 L428.705,329.579 L427.672,332.782 L426.483,335.957 L425.140,339.100 L423.645,342.208 L421.999,345.277 L420.204,348.302 L418.263,351.281 L416.178,354.210 L413.952,357.085 L411.586,359.902 L409.085,362.659 L406.450,365.352 L403.686,367.977 L400.796,370.531 L397.783,373.012 L394.651,375.416 L391.403,377.740 L388.044,379.982 L384.578,382.138 L381.009,384.207 L377.341,386.185 L373.579,388.070 L369.727,389.861 L365.790,391.554 L361.773,393.147 L357.681,394.639 L353.518,396.029 L349.291,397.313 L345.003,398.491 L340.660,399.561 L336.268,400.522 L331.832,401.373 L327.357,402.112 L322.849,402.739 L318.312,403.254 L313.754,403.654 L309.179,403.941 L304.592,404.113 L300.000,404.170 L295.408,404.113 L290.821,403.941 L286.246,403.654 L281.688,403.254 L277.151,402.739 L272.643,402.112 L268.168,401.373 L263.732,400.522 L259.340,399.561 L254.997,398.491 L250.709,397.313 L246.482,396.029 L242.319,394.639 L238.227,393.147 L234.210,391.554 L230.273,389.861 L226.421,388.070 L222.659,386.185 L218.991,384.207 L215.422,382.138 L211.956,379.982 L208.597,377.740 L205.349,375.416 L202.217,373.012 L199.204,370.531 L196.314,367.977 L193.550,365.352 L190.915,362.659 L188.414,359.902 L186.048,357.085 L183.822,354.210 L181.737,351.281 L179.796,348.302 L178.001,345.277 L176.355,342.208 L174.860,339.100 L173.517,335.957 L172.328,332.782 L171.295,329.579 L170.419,326.352 L169.701,323.106 L169.141,319.843 L168.741,316.569 L168.500,313.286 L168.420,310.000 L168.500,306.714 L168.741,303.431 L169.141,300.157 L169.701,296.894 L170.419,293.648 L171.295,290.421 L172.328,287.218 L173.517,284.043 L174.860,280.900 L176.355,277.792 L178.001,274.723 L179.796,271.698 L181.737,268.719 L183.822,265.790 L186.048,262.915 L188.414,260.098 L190.915,257.341 L193.550,254.648 L196.314,252.023 L199.204,249.469 L202.217,246.988 L205.349,244.584 L208.597,242.260 L211.956,240.018 L215.422,237.862 L218.991,235.793 L222.659,233.815 L226.421,231.930 L230.273,230.139 L234.210,228.446 L238.227,226.853 L242.319,225.361 L246.482,223.971 L250.709,222.687 L254.997,221.509 L259.340,220.439 L263.732,219.478 L268.168,218.627 L272.643,217.888 L277.151,217.261 L281.688,216.746 L286.246,216.346 L290.821,216.059 L295.408,215.887 L300.000,215.830 L304.592,215.887 L309.179,216.059 L313.754,216.346 L318.312,216.746 L322.849,217.261 L327.357,217.888 L331.832,218.627 L336.268,219.478 L340.660,220.439 L345.003,221.509 L349.291,222.687 L353.518,223.971 L357.681,225.361 L361.773,226.853 L365.790,228.446 L369.727,230.139 L373.579,231.930 L377.341,233.815 L381.009,235.793 L384.578,237.862 L388.044,240.018 L391.403,242.260 L394.651,244.584 L397.783,246.988 L400.796,249.469 L403.686,252.023 L406.450,254.648 L409.085,257.341 L411.586,260.098 L413.952,262.915 L416.178,265.790 L418.263,268.719 L420.204,271.698 L421.999,274.723 L423.645,277.792 L425.140,280.900 L426.483,284.043 L427.672,287.218 L428.705,290.421 L429.581,293.648 L430.299,296.894 L430.859,300.157 L431.259,303.431 L431.500,306.714 L431.580,310.000 Z" fill="none" stroke="#EBE7DF" stroke-width="2.7" stroke-linecap="round" stroke-linejoin="round"/><path d="M443.820,310.000 L443.732,313.592 L443.470,317.180 L443.032,320.759 L442.420,324.325 L441.635,327.874 L440.677,331.400 L439.548,334.901 L438.249,338.371 L436.781,341.807 L435.147,345.204 L433.348,348.558 L431.386,351.865 L429.265,355.122 L426.986,358.323 L424.552,361.465 L421.966,364.545 L419.232,367.558 L416.353,370.501 L413.332,373.370 L410.173,376.162 L406.879,378.874 L403.455,381.501 L399.906,384.042 L396.234,386.492 L392.446,388.849 L388.544,391.110 L384.535,393.272 L380.423,395.333 L376.213,397.290 L371.910,399.140 L367.519,400.882 L363.047,402.513 L358.497,404.031 L353.876,405.435 L349.189,406.723 L344.443,407.892 L339.642,408.943 L334.793,409.873 L329.902,410.681 L324.974,411.366 L320.016,411.928 L315.033,412.366 L310.032,412.679 L305.019,412.867 L300.000,412.930 L294.981,412.867 L289.968,412.679 L284.967,412.366 L279.984,411.928 L275.026,411.366 L270.098,410.681 L265.207,409.873 L260.358,408.943 L255.557,407.892 L250.811,406.723 L246.124,405.435 L241.503,404.031 L236.953,402.513 L232.481,400.882 L228.090,399.140 L223.787,397.290 L219.577,395.333 L215.465,393.272 L211.456,391.110 L207.554,388.849 L203.766,386.492 L200.094,384.042 L196.545,381.501 L193.121,378.874 L189.827,376.162 L186.668,373.370 L183.647,370.501 L180.768,367.558 L178.034,364.545 L175.448,361.465 L173.014,358.323 L170.735,355.122 L168.614,351.865 L166.652,348.558 L164.853,345.204 L163.219,341.807 L161.751,338.371 L160.452,334.901 L159.323,331.400 L158.365,327.874 L157.580,324.325 L156.968,320.759 L156.530,317.180 L156.268,313.592 L156.180,310.000 L156.268,306.408 L156.530,302.820 L156.968,299.241 L157.580,295.675 L158.365,292.126 L159.323,288.600 L160.452,285.099 L161.751,281.629 L163.219,278.193 L164.853,274.796 L166.652,271.442 L168.614,268.135 L170.735,264.878 L173.014,261.677 L175.448,258.535 L178.034,255.455 L180.768,252.442 L183.647,249.499 L186.668,246.630 L189.827,243.838 L193.121,241.126 L196.545,238.499 L200.094,235.958 L203.766,233.508 L207.554,231.151 L211.456,228.890 L215.465,226.728 L219.577,224.667 L223.787,222.710 L228.090,220.860 L232.481,219.118 L236.953,217.487 L241.503,215.969 L246.124,214.565 L250.811,213.277 L255.557,212.108 L260.358,211.057 L265.207,210.127 L270.098,209.319 L275.026,208.634 L279.984,208.072 L284.967,207.634 L289.968,207.321 L294.981,207.133 L300.000,207.070 L305.019,207.133 L310.032,207.321 L315.033,207.634 L320.016,208.072 L324.974,208.634 L329.902,209.319 L334.793,210.127 L339.642,211.057 L344.443,212.108 L349.189,213.277 L353.876,214.565 L358.497,215.969 L363.047,217.487 L367.519,219.118 L371.910,220.860 L376.213,222.710 L380.423,224.667 L384.535,226.728 L388.544,228.890 L392.446,231.151 L396.234,233.508 L399.906,235.958 L403.455,238.499 L406.879,241.126 L410.173,243.838 L413.332,246.630 L416.353,249.499 L419.232,252.442 L421.966,255.455 L424.552,258.535 L426.986,261.677 L429.265,264.878 L431.386,268.135 L433.348,271.442 L435.147,274.796 L436.781,278.193 L438.249,281.629 L439.548,285.099 L440.677,288.600 L441.635,292.126 L442.420,295.675 L443.032,299.241 L443.470,302.820 L443.732,306.408 L443.820,310.000 Z" fill="none" stroke="#EBE7DF" stroke-width="2.7" stroke-linecap="round" stroke-linejoin="round"/><path d="M456.060,310.000 L455.965,313.898 L455.680,317.791 L455.205,321.675 L454.541,325.544 L453.689,329.395 L452.650,333.222 L451.424,337.020 L450.015,340.786 L448.422,344.514 L446.648,348.200 L444.696,351.840 L442.568,355.428 L440.266,358.962 L437.793,362.435 L435.152,365.845 L432.346,369.187 L429.380,372.456 L426.255,375.650 L422.977,378.763 L419.549,381.793 L415.975,384.735 L412.260,387.586 L408.408,390.343 L404.425,393.002 L400.313,395.560 L396.080,398.013 L391.730,400.359 L387.268,402.595 L382.699,404.718 L378.030,406.726 L373.266,408.616 L368.412,410.386 L363.475,412.034 L358.461,413.557 L353.376,414.954 L348.225,416.224 L343.016,417.363 L337.754,418.372 L332.447,419.249 L327.100,419.993 L321.719,420.603 L316.313,421.078 L310.886,421.418 L305.446,421.622 L300.000,421.690 L294.554,421.622 L289.114,421.418 L283.687,421.078 L278.281,420.603 L272.900,419.993 L267.553,419.249 L262.246,418.372 L256.984,417.363 L251.775,416.224 L246.624,414.954 L241.539,413.557 L236.525,412.034 L231.588,410.386 L226.734,408.616 L221.970,406.726 L217.301,404.718 L212.732,402.595 L208.270,400.359 L203.920,398.013 L199.687,395.560 L195.575,393.002 L191.592,390.343 L187.740,387.586 L184.025,384.735 L180.451,381.793 L177.023,378.763 L173.745,375.650 L170.620,372.456 L167.654,369.187 L164.848,365.845 L162.207,362.435 L159.734,358.962 L157.432,355.428 L155.304,351.840 L153.352,348.200 L151.578,344.514 L149.985,340.786 L148.576,337.020 L147.350,333.222 L146.311,329.395 L145.459,325.544 L144.795,321.675 L144.320,317.791 L144.035,313.898 L143.940,310.000 L144.035,306.102 L144.320,302.209 L144.795,298.325 L145.459,294.456 L146.311,290.605 L147.350,286.778 L148.576,282.980 L149.985,279.214 L151.578,275.486 L153.352,271.800 L155.304,268.160 L157.432,264.572 L159.734,261.038 L162.207,257.565 L164.848,254.155 L167.654,250.813 L170.620,247.544 L173.745,244.350 L177.023,241.237 L180.451,238.207 L184.025,235.265 L187.740,232.414 L191.592,229.657 L195.575,226.998 L199.687,224.440 L203.920,221.987 L208.270,219.641 L212.732,217.405 L217.301,215.282 L221.970,213.274 L226.734,211.384 L231.588,209.614 L236.525,207.966 L241.539,206.443 L246.624,205.046 L251.775,203.776 L256.984,202.637 L262.246,201.628 L267.553,200.751 L272.900,200.007 L278.281,199.397 L283.687,198.922 L289.114,198.582 L294.554,198.378 L300.000,198.310 L305.446,198.378 L310.886,198.582 L316.313,198.922 L321.719,199.397 L327.100,200.007 L332.447,200.751 L337.754,201.628 L343.016,202.637 L348.225,203.776 L353.376,205.046 L358.461,206.443 L363.475,207.966 L368.412,209.614 L373.266,211.384 L378.030,213.274 L382.699,215.282 L387.268,217.405 L391.730,219.641 L396.080,221.987 L400.313,224.440 L404.425,226.998 L408.408,229.657 L412.260,232.414 L415.975,235.265 L419.549,238.207 L422.977,241.237 L426.255,244.350 L429.380,247.544 L432.346,250.813 L435.152,254.155 L437.793,257.565 L440.266,261.038 L442.568,264.572 L444.696,268.160 L446.648,271.800 L448.422,275.486 L450.015,279.214 L451.424,282.980 L452.650,286.778 L453.689,290.605 L454.541,294.456 L455.205,298.325 L455.680,302.209 L455.965,306.102 L456.060,310.000 Z" fill="none" stroke="#EBE7DF" stroke-width="2.7" stroke-linecap="round" stroke-linejoin="round"/><path d="M468.300,310.000 L468.197,314.204 L467.890,318.402 L467.378,322.590 L466.662,326.763 L465.743,330.916 L464.622,335.043 L463.301,339.139 L461.780,343.201 L460.063,347.221 L458.150,351.196 L456.045,355.121 L453.750,358.991 L451.267,362.802 L448.600,366.548 L445.752,370.225 L442.726,373.829 L439.527,377.355 L436.158,380.799 L432.622,384.156 L428.925,387.424 L425.071,390.597 L421.065,393.672 L416.911,396.644 L412.615,399.512 L408.181,402.270 L403.616,404.916 L398.924,407.446 L394.112,409.858 L389.185,412.147 L384.150,414.313 L379.012,416.351 L373.778,418.260 L368.454,420.037 L363.046,421.679 L357.562,423.186 L352.008,424.555 L346.390,425.784 L340.715,426.872 L334.992,427.818 L329.225,428.620 L323.423,429.278 L317.592,429.790 L311.740,430.157 L305.874,430.377 L300.000,430.450 L294.126,430.377 L288.260,430.157 L282.408,429.790 L276.577,429.278 L270.775,428.620 L265.008,427.818 L259.285,426.872 L253.610,425.784 L247.992,424.555 L242.438,423.186 L236.954,421.679 L231.546,420.037 L226.222,418.260 L220.988,416.351 L215.850,414.313 L210.815,412.147 L205.888,409.858 L201.076,407.446 L196.384,404.916 L191.819,402.270 L187.385,399.512 L183.089,396.644 L178.935,393.672 L174.929,390.597 L171.075,387.424 L167.378,384.156 L163.842,380.799 L160.473,377.355 L157.274,373.829 L154.248,370.225 L151.400,366.548 L148.733,362.802 L146.250,358.991 L143.955,355.121 L141.850,351.196 L139.937,347.221 L138.220,343.201 L136.699,339.139 L135.378,335.043 L134.257,330.916 L133.338,326.763 L132.622,322.590 L132.110,318.402 L131.803,314.204 L131.700,310.000 L131.803,305.796 L132.110,301.598 L132.622,297.410 L133.338,293.237 L134.257,289.084 L135.378,284.957 L136.699,280.861 L138.220,276.799 L139.937,272.779 L141.850,268.804 L143.955,264.879 L146.250,261.009 L148.733,257.198 L151.400,253.452 L154.248,249.775 L157.274,246.171 L160.473,242.645 L163.842,239.201 L167.378,235.844 L171.075,232.576 L174.929,229.403 L178.935,226.328 L183.089,223.356 L187.385,220.488 L191.819,217.730 L196.384,215.084 L201.076,212.554 L205.888,210.142 L210.815,207.853 L215.850,205.687 L220.988,203.649 L226.222,201.740 L231.546,199.963 L236.954,198.321 L242.438,196.814 L247.992,195.445 L253.610,194.216 L259.285,193.128 L265.008,192.182 L270.775,191.380 L276.577,190.722 L282.408,190.210 L288.260,189.843 L294.126,189.623 L300.000,189.550 L305.874,189.623 L311.740,189.843 L317.592,190.210 L323.423,190.722 L329.225,191.380 L334.992,192.182 L340.715,193.128 L346.390,194.216 L352.008,195.445 L357.562,196.814 L363.046,198.321 L368.454,199.963 L373.778,201.740 L379.012,203.649 L384.150,205.687 L389.185,207.853 L394.112,210.142 L398.924,212.554 L403.616,215.084 L408.181,217.730 L412.615,220.488 L416.911,223.356 L421.065,226.328 L425.071,229.403 L428.925,232.576 L432.622,235.844 L436.158,239.201 L439.527,242.645 L442.726,246.171 L445.752,249.775 L448.600,253.452 L451.267,257.198 L453.750,261.009 L456.045,264.879 L458.150,268.804 L460.063,272.779 L461.780,276.799 L463.301,280.861 L464.622,284.957 L465.743,289.084 L466.662,293.237 L467.378,297.410 L467.890,301.598 L468.197,305.796 L468.300,310.000 Z" fill="none" stroke="#EBE7DF" stroke-width="2.7" stroke-linecap="round" stroke-linejoin="round"/><path d="M480.540,310.000 L480.430,314.509 L480.100,319.013 L479.551,323.506 L478.783,327.983 L477.797,332.437 L476.595,336.864 L475.177,341.259 L473.546,345.615 L471.704,349.928 L469.652,354.192 L467.394,358.403 L464.931,362.554 L462.268,366.642 L459.407,370.660 L456.352,374.605 L453.107,378.471 L449.674,382.253 L446.060,385.948 L442.267,389.550 L438.302,393.055 L434.167,396.458 L429.870,399.757 L425.414,402.946 L420.805,406.022 L416.049,408.981 L411.152,411.819 L406.119,414.533 L400.957,417.120 L395.672,419.576 L390.270,421.899 L384.758,424.086 L379.144,426.133 L373.432,428.039 L367.631,429.801 L361.748,431.418 L355.790,432.886 L349.764,434.205 L343.677,435.372 L337.536,436.386 L331.350,437.247 L325.126,437.953 L318.872,438.502 L312.594,438.895 L306.301,439.131 L300.000,439.210 L293.699,439.131 L287.406,438.895 L281.128,438.502 L274.874,437.953 L268.650,437.247 L262.464,436.386 L256.323,435.372 L250.236,434.205 L244.210,432.886 L238.252,431.418 L232.369,429.801 L226.568,428.039 L220.856,426.133 L215.242,424.086 L209.730,421.899 L204.328,419.576 L199.043,417.120 L193.881,414.533 L188.848,411.819 L183.951,408.981 L179.195,406.022 L174.586,402.946 L170.130,399.757 L165.833,396.458 L161.698,393.055 L157.733,389.550 L153.940,385.948 L150.326,382.253 L146.893,378.471 L143.648,374.605 L140.593,370.660 L137.732,366.642 L135.069,362.554 L132.606,358.403 L130.348,354.192 L128.296,349.928 L126.454,345.615 L124.823,341.259 L123.405,336.864 L122.203,332.437 L121.217,327.983 L120.449,323.506 L119.900,319.013 L119.570,314.509 L119.460,310.000 L119.570,305.491 L119.900,300.987 L120.449,296.494 L121.217,292.017 L122.203,287.563 L123.405,283.136 L124.823,278.741 L126.454,274.385 L128.296,270.072 L130.348,265.808 L132.606,261.597 L135.069,257.446 L137.732,253.358 L140.593,249.340 L143.648,245.395 L146.893,241.529 L150.326,237.747 L153.940,234.052 L157.733,230.450 L161.698,226.945 L165.833,223.542 L170.130,220.243 L174.586,217.054 L179.195,213.978 L183.951,211.019 L188.848,208.181 L193.881,205.467 L199.043,202.880 L204.328,200.424 L209.730,198.101 L215.242,195.914 L220.856,193.867 L226.568,191.961 L232.369,190.199 L238.252,188.582 L244.210,187.114 L250.236,185.795 L256.323,184.628 L262.464,183.614 L268.650,182.753 L274.874,182.047 L281.128,181.498 L287.406,181.105 L293.699,180.869 L300.000,180.790 L306.301,180.869 L312.594,181.105 L318.872,181.498 L325.126,182.047 L331.350,182.753 L337.536,183.614 L343.677,184.628 L349.764,185.795 L355.790,187.114 L361.748,188.582 L367.631,190.199 L373.432,191.961 L379.144,193.867 L384.758,195.914 L390.270,198.101 L395.672,200.424 L400.957,202.880 L406.119,205.467 L411.152,208.181 L416.049,211.019 L420.805,213.978 L425.414,217.054 L429.870,220.243 L434.167,223.542 L438.302,226.945 L442.267,230.450 L446.060,234.052 L449.674,237.747 L453.107,241.529 L456.352,245.395 L459.407,249.340 L462.268,253.358 L464.931,257.446 L467.394,261.597 L469.652,265.808 L471.704,270.072 L473.546,274.385 L475.177,278.741 L476.595,283.136 L477.797,287.563 L478.783,292.017 L479.551,296.494 L480.100,300.987 L480.430,305.491 L480.540,310.000 Z" fill="none" stroke="#EBE7DF" stroke-width="2.7" stroke-linecap="round" stroke-linejoin="round"/><path d="M492.780,310.000 L492.663,314.815 L492.310,319.624 L491.724,324.422 L490.904,329.202 L489.851,333.958 L488.567,338.686 L487.054,343.378 L485.312,348.030 L483.345,352.635 L481.154,357.189 L478.743,361.684 L476.113,366.117 L473.270,370.482 L470.215,374.773 L466.952,378.985 L463.487,383.113 L459.822,387.152 L455.962,391.097 L451.913,394.943 L447.678,398.685 L443.263,402.320 L438.674,405.842 L433.916,409.247 L428.995,412.532 L423.917,415.691 L418.687,418.722 L413.313,421.620 L407.801,424.382 L402.158,427.005 L396.390,429.486 L390.505,431.820 L384.509,434.007 L378.411,436.042 L372.217,437.924 L365.935,439.649 L359.572,441.217 L353.137,442.625 L346.638,443.872 L340.081,444.955 L333.476,445.874 L326.830,446.627 L320.151,447.214 L313.448,447.634 L306.728,447.886 L300.000,447.970 L293.272,447.886 L286.552,447.634 L279.849,447.214 L273.170,446.627 L266.524,445.874 L259.919,444.955 L253.362,443.872 L246.863,442.625 L240.428,441.217 L234.065,439.649 L227.783,437.924 L221.589,436.042 L215.491,434.007 L209.495,431.820 L203.610,429.486 L197.842,427.005 L192.199,424.382 L186.687,421.620 L181.313,418.722 L176.083,415.691 L171.005,412.532 L166.084,409.247 L161.326,405.842 L156.737,402.320 L152.322,398.685 L148.087,394.943 L144.038,391.097 L140.178,387.152 L136.513,383.113 L133.048,378.985 L129.785,374.773 L126.730,370.482 L123.887,366.117 L121.257,361.684 L118.846,357.189 L116.655,352.635 L114.688,348.030 L112.946,343.378 L111.433,338.686 L110.149,333.958 L109.096,329.202 L108.276,324.422 L107.690,319.624 L107.337,314.815 L107.220,310.000 L107.337,305.185 L107.690,300.376 L108.276,295.578 L109.096,290.798 L110.149,286.042 L111.433,281.314 L112.946,276.622 L114.688,271.970 L116.655,267.365 L118.846,262.811 L121.257,258.316 L123.887,253.883 L126.730,249.518 L129.785,245.227 L133.048,241.015 L136.513,236.887 L140.178,232.848 L144.038,228.903 L148.087,225.057 L152.322,221.315 L156.737,217.680 L161.326,214.158 L166.084,210.753 L171.005,207.468 L176.083,204.309 L181.313,201.278 L186.687,198.380 L192.199,195.618 L197.842,192.995 L203.610,190.514 L209.495,188.180 L215.491,185.993 L221.589,183.958 L227.783,182.076 L234.065,180.351 L240.428,178.783 L246.863,177.375 L253.362,176.128 L259.919,175.045 L266.524,174.126 L273.170,173.373 L279.849,172.786 L286.552,172.366 L293.272,172.114 L300.000,172.030 L306.728,172.114 L313.448,172.366 L320.151,172.786 L326.830,173.373 L333.476,174.126 L340.081,175.045 L346.638,176.128 L353.137,177.375 L359.572,178.783 L365.935,180.351 L372.217,182.076 L378.411,183.958 L384.509,185.993 L390.505,188.180 L396.390,190.514 L402.158,192.995 L407.801,195.618 L413.313,198.380 L418.687,201.278 L423.917,204.309 L428.995,207.468 L433.916,210.753 L438.674,214.158 L443.263,217.680 L447.678,221.315 L451.913,225.057 L455.962,228.903 L459.822,232.848 L463.487,236.887 L466.952,241.015 L470.215,245.227 L473.270,249.518 L476.113,253.883 L478.743,258.316 L481.154,262.811 L483.345,267.365 L485.312,271.970 L487.054,276.622 L488.567,281.314 L489.851,286.042 L490.904,290.798 L491.724,295.578 L492.310,300.376 L492.663,305.185 L492.780,310.000 Z" fill="none" stroke="#EBE7DF" stroke-width="2.7" stroke-linecap="round" stroke-linejoin="round"/><path d="M505.020,310.000 L504.895,315.121 L504.521,320.235 L503.897,325.337 L503.025,330.421 L501.905,335.479 L500.540,340.507 L498.930,345.497 L497.078,350.444 L494.986,355.342 L492.656,360.185 L490.091,364.966 L487.295,369.680 L484.271,374.322 L481.022,378.886 L477.553,383.365 L473.867,387.755 L469.969,392.050 L465.865,396.246 L461.558,400.336 L457.054,404.316 L452.360,408.182 L447.479,411.927 L442.419,415.549 L437.185,419.042 L431.784,422.402 L426.223,425.625 L420.508,428.707 L414.646,431.645 L408.644,434.434 L402.510,437.072 L396.251,439.555 L389.875,441.880 L383.389,444.045 L376.802,446.046 L370.121,447.881 L363.355,449.549 L356.511,451.046 L349.599,452.371 L342.626,453.524 L335.601,454.501 L328.533,455.302 L321.430,455.926 L314.301,456.373 L307.155,456.641 L300.000,456.730 L292.845,456.641 L285.699,456.373 L278.570,455.926 L271.467,455.302 L264.399,454.501 L257.374,453.524 L250.401,452.371 L243.489,451.046 L236.645,449.549 L229.879,447.881 L223.198,446.046 L216.611,444.045 L210.125,441.880 L203.749,439.555 L197.490,437.072 L191.356,434.434 L185.354,431.645 L179.492,428.707 L173.777,425.625 L168.216,422.402 L162.815,419.042 L157.581,415.549 L152.521,411.927 L147.640,408.182 L142.946,404.316 L138.442,400.336 L134.135,396.246 L130.031,392.050 L126.133,387.755 L122.447,383.365 L118.978,378.886 L115.729,374.322 L112.705,369.680 L109.909,364.966 L107.344,360.185 L105.014,355.342 L102.922,350.444 L101.070,345.497 L99.460,340.507 L98.095,335.479 L96.975,330.421 L96.103,325.337 L95.479,320.235 L95.105,315.121 L94.980,310.000 L95.105,304.879 L95.479,299.765 L96.103,294.663 L96.975,289.579 L98.095,284.521 L99.460,279.493 L101.070,274.503 L102.922,269.556 L105.014,264.658 L107.344,259.815 L109.909,255.034 L112.705,250.320 L115.729,245.678 L118.978,241.114 L122.447,236.635 L126.133,232.245 L130.031,227.950 L134.135,223.754 L138.442,219.664 L142.946,215.684 L147.640,211.818 L152.521,208.073 L157.581,204.451 L162.815,200.958 L168.216,197.598 L173.777,194.375 L179.492,191.293 L185.354,188.355 L191.356,185.566 L197.490,182.928 L203.749,180.445 L210.125,178.120 L216.611,175.955 L223.198,173.954 L229.879,172.119 L236.645,170.451 L243.489,168.954 L250.401,167.629 L257.374,166.476 L264.399,165.499 L271.467,164.698 L278.570,164.074 L285.699,163.627 L292.845,163.359 L300.000,163.270 L307.155,163.359 L314.301,163.627 L321.430,164.074 L328.533,164.698 L335.601,165.499 L342.626,166.476 L349.599,167.629 L356.511,168.954 L363.355,170.451 L370.121,172.119 L376.802,173.954 L383.389,175.955 L389.875,178.120 L396.251,180.445 L402.510,182.928 L408.644,185.566 L414.646,188.355 L420.508,191.293 L426.223,194.375 L431.784,197.598 L437.185,200.958 L442.419,204.451 L447.479,208.073 L452.360,211.818 L457.054,215.684 L461.558,219.664 L465.865,223.754 L469.969,227.950 L473.867,232.245 L477.553,236.635 L481.022,241.114 L484.271,245.678 L487.295,250.320 L490.091,255.034 L492.656,259.815 L494.986,264.658 L497.078,269.556 L498.930,274.503 L500.540,279.493 L501.905,284.521 L503.025,289.579 L503.897,294.663 L504.521,299.765 L504.895,304.879 L505.020,310.000 Z" fill="none" stroke="#EBE7DF" stroke-width="2.7" stroke-linecap="round" stroke-linejoin="round"/><path d="M517.260,310.000 L517.128,315.427 L516.731,320.846 L516.070,326.253 L515.146,331.640 L513.959,337.001 L512.512,342.328 L510.806,347.616 L508.844,352.859 L506.627,358.049 L504.158,363.181 L501.440,368.248 L498.477,373.243 L495.272,378.162 L491.829,382.998 L488.153,387.745 L484.247,392.397 L480.117,396.949 L475.767,401.395 L471.203,405.729 L466.431,409.947 L461.456,414.043 L456.284,418.012 L450.921,421.850 L445.375,425.552 L439.652,429.112 L433.759,432.528 L427.702,435.794 L421.490,438.907 L415.130,441.863 L408.630,444.658 L401.997,447.290 L395.241,449.753 L388.368,452.047 L381.387,454.168 L374.307,456.113 L367.137,457.880 L359.885,459.467 L352.560,460.871 L345.171,462.092 L337.727,463.128 L330.237,463.977 L322.710,464.638 L315.155,465.111 L307.582,465.395 L300.000,465.490 L292.418,465.395 L284.845,465.111 L277.290,464.638 L269.763,463.977 L262.273,463.128 L254.829,462.092 L247.440,460.871 L240.115,459.467 L232.863,457.880 L225.693,456.113 L218.613,454.168 L211.632,452.047 L204.759,449.753 L198.003,447.290 L191.370,444.658 L184.870,441.863 L178.510,438.907 L172.298,435.794 L166.241,432.528 L160.348,429.112 L154.625,425.552 L149.079,421.850 L143.716,418.012 L138.544,414.043 L133.569,409.947 L128.797,405.729 L124.233,401.395 L119.883,396.949 L115.753,392.397 L111.847,387.745 L108.171,382.998 L104.728,378.162 L101.523,373.243 L98.560,368.248 L95.842,363.181 L93.373,358.049 L91.156,352.859 L89.194,347.616 L87.488,342.328 L86.041,337.001 L84.854,331.640 L83.930,326.253 L83.269,320.846 L82.872,315.427 L82.740,310.000 L82.872,304.573 L83.269,299.154 L83.930,293.747 L84.854,288.360 L86.041,282.999 L87.488,277.672 L89.194,272.384 L91.156,267.141 L93.373,261.951 L95.842,256.819 L98.560,251.752 L101.523,246.757 L104.728,241.838 L108.171,237.002 L111.847,232.255 L115.753,227.603 L119.883,223.051 L124.233,218.605 L128.797,214.271 L133.569,210.053 L138.544,205.957 L143.716,201.988 L149.079,198.150 L154.625,194.448 L160.348,190.888 L166.241,187.472 L172.298,184.206 L178.510,181.093 L184.870,178.137 L191.370,175.342 L198.003,172.710 L204.759,170.247 L211.632,167.953 L218.613,165.832 L225.693,163.887 L232.863,162.120 L240.115,160.533 L247.440,159.129 L254.829,157.908 L262.273,156.872 L269.763,156.023 L277.290,155.362 L284.845,154.889 L292.418,154.605 L300.000,154.510 L307.582,154.605 L315.155,154.889 L322.710,155.362 L330.237,156.023 L337.727,156.872 L345.171,157.908 L352.560,159.129 L359.885,160.533 L367.137,162.120 L374.307,163.887 L381.387,165.832 L388.368,167.953 L395.241,170.247 L401.997,172.710 L408.630,175.342 L415.130,178.137 L421.490,181.093 L427.702,184.206 L433.759,187.472 L439.652,190.888 L445.375,194.448 L450.921,198.150 L456.284,201.988 L461.456,205.957 L466.431,210.053 L471.203,214.271 L475.767,218.605 L480.117,223.051 L484.247,227.603 L488.153,232.255 L491.829,237.002 L495.272,241.838 L498.477,246.757 L501.440,251.752 L504.158,256.819 L506.627,261.951 L508.844,267.141 L510.806,272.384 L512.512,277.672 L513.959,282.999 L515.146,288.360 L516.070,293.747 L516.731,299.154 L517.128,304.573 L517.260,310.000 Z" fill="none" stroke="#EBE7DF" stroke-width="2.7" stroke-linecap="round" stroke-linejoin="round"/><g aria-label="SIGNAL / 01" fill="#EBE7DF" transform="translate(167.000,496.000) scale(1.000000,1)"><path d="M1012 1442V1237Q920 1296 827.5 1326.0Q735 1356 641 1356Q498 1356 415.0 1289.5Q332 1223 332 1110Q332 1011 386.5 959.0Q441 907 590 872L696 848Q906 799 1002.0 694.0Q1098 589 1098 408Q1098 195 966.0 83.0Q834 -29 582 -29Q477 -29 371.0 -6.5Q265 16 158 61V276Q273 203 375.5 169.0Q478 135 582 135Q735 135 820.0 203.5Q905 272 905 395Q905 507 846.5 566.0Q788 625 643 657L535 682Q327 729 233.0 824.0Q139 919 139 1079Q139 1279 273.5 1399.5Q408 1520 631 1520Q717 1520 812.0 1500.5Q907 1481 1012 1442Z" transform="translate(0.0000,0) scale(0.0122070,-0.0122070)"/><path d="M201 1493H1030V1323H717V170H1030V0H201V170H514V1323H201Z" transform="translate(15.0513,0) scale(0.0122070,-0.0122070)"/><path d="M1104 123Q1023 48 921.5 9.5Q820 -29 702 -29Q418 -29 260.0 174.5Q102 378 102 745Q102 1111 262.0 1315.5Q422 1520 707 1520Q801 1520 887.0 1493.5Q973 1467 1053 1413V1206Q972 1283 887.0 1319.5Q802 1356 707 1356Q510 1356 411.5 1203.5Q313 1051 313 745Q313 434 408.5 284.5Q504 135 702 135Q769 135 819.5 150.5Q870 166 911 199V600H694V766H1104Z" transform="translate(30.1025,0) scale(0.0122070,-0.0122070)"/><path d="M139 1493H395L899 264V1493H1094V0H838L334 1229V0H139Z" transform="translate(45.1538,0) scale(0.0122070,-0.0122070)"/><path d="M616 1315 403 551H829ZM494 1493H739L1196 0H987L877 389H354L246 0H37Z" transform="translate(60.2051,0) scale(0.0122070,-0.0122070)"/><path d="M215 1493H418V170H1139V0H215Z" transform="translate(75.2563,0) scale(0.0122070,-0.0122070)"/><path d="M889 1493H1079L293 -190H102Z" transform="translate(105.3589,0) scale(0.0122070,-0.0122070)"/><path d="M483 750Q483 805 521.5 845.0Q560 885 614 885Q670 885 710.0 845.0Q750 805 750 750Q750 694 710.5 655.0Q671 616 614 616Q558 616 520.5 654.0Q483 692 483 750ZM616 1360Q475 1360 405.5 1208.0Q336 1056 336 745Q336 435 405.5 283.0Q475 131 616 131Q758 131 827.5 283.0Q897 435 897 745Q897 1056 827.5 1208.0Q758 1360 616 1360ZM616 1520Q855 1520 977.5 1324.0Q1100 1128 1100 745Q1100 363 977.5 167.0Q855 -29 616 -29Q377 -29 255.0 167.0Q133 363 133 745Q133 1128 255.0 1324.0Q377 1520 616 1520Z" transform="translate(135.4614,0) scale(0.0122070,-0.0122070)"/><path d="M270 170H584V1311L246 1235V1419L582 1493H784V170H1094V0H270Z" transform="translate(150.5127,0) scale(0.0122070,-0.0122070)"/></g></svg>