<svg xmlns="http://www.w3.org/2000/svg" width="600" height="600" viewBox="0 0 600 600" role="img"><title>Object Studies sticker 04 / separate artwork</title><rect width="600" height="600" fill="none"/><rect x="25.000" y="144.000" width="550.000" height="312.000" rx="30" fill="#E36F48"/><g aria-label="MAKE" fill="#181B1B" transform="translate(59.000,272.000) scale(1.000000,1)"><path d="M340 0 220 493H216Q220 450 222.5 402.5Q225 355 225 313V0H59V714H318L414 292H417L513 714H770V0H600V316Q600 359 601.5 405.5Q603 452 606 493H603L484 0Z" transform="translate(0.0000,0) scale(0.1140000,-0.1140000)"/><path d="M411 0 387 138H222L197 0H0L181 715H423L606 0ZM330 435Q322 473 315.5 514.0Q309 555 304 589Q300 556 293.0 515.5Q286 475 279 437L251 287H357Z" transform="translate(94.5060,0) scale(0.1140000,-0.1140000)"/><path d="M583 0H383L282 268L240 239V0H59V714H240V404Q246 426 257.0 448.5Q268 471 281 495L393 714H588L412 394Z" transform="translate(163.5900,0) scale(0.1140000,-0.1140000)"/><path d="M417 0H59V714H417V567H240V443H404V296H240V149H417Z" transform="translate(229.3680,0) scale(0.1140000,-0.1140000)"/></g><g aria-label="SOMETHING." fill="#181B1B" transform="translate(59.000,386.000) scale(0.962541,1)"><path d="M452 217Q452 153 425.0 101.5Q398 50 345.5 20.0Q293 -10 217 -10Q161 -10 119.0 0.0Q77 10 30 35V207Q76 178 124.0 162.5Q172 147 209 147Q239 147 254.0 162.0Q269 177 269 200Q269 216 262.5 229.5Q256 243 236.5 259.0Q217 275 176 298Q130 324 98.0 352.0Q66 380 50.0 418.5Q34 457 34 515Q34 613 94.5 668.5Q155 724 263 724Q315 724 362.5 710.5Q410 697 453 673L403 524Q326 570 266 570Q239 570 227.5 557.0Q216 544 216 524Q216 506 223.5 492.5Q231 479 253.0 463.5Q275 448 318 423Q383 385 417.5 338.5Q452 292 452 217Z" transform="translate(0.0000,0) scale(0.0910000,-0.0910000)"/><path d="M610 358Q610 182 539.5 86.0Q469 -10 325 -10Q184 -10 111.5 86.5Q39 183 39 359Q39 534 110.5 629.5Q182 725 325 725Q470 725 540.0 629.5Q610 534 610 358ZM228 358Q228 252 251.5 197.5Q275 143 325 143Q376 143 398.5 196.5Q421 250 421 358Q421 466 398.5 520.5Q376 575 325 575Q275 575 251.5 519.5Q228 464 228 358Z" transform="translate(43.4070,0) scale(0.0910000,-0.0910000)"/><path d="M340 0 220 493H216Q220 450 222.5 402.5Q225 355 225 313V0H59V714H318L414 292H417L513 714H770V0H600V316Q600 359 601.5 405.5Q603 452 606 493H603L484 0Z" transform="translate(102.5570,0) scale(0.0910000,-0.0910000)"/><path d="M417 0H59V714H417V567H240V443H404V296H240V149H417Z" transform="translate(177.9960,0) scale(0.0910000,-0.0910000)"/><path d="M333 0H152V564H20V714H465V564H333Z" transform="translate(219.4010,0) scale(0.0910000,-0.0910000)"/><path d="M574 0H393V296H240V0H59V714H240V446H393V714H574Z" transform="translate(263.5360,0) scale(0.0910000,-0.0910000)"/><path d="M350 0H27V97L98 131V583L27 617V714H350V617L279 583V131L350 97Z" transform="translate(321.1390,0) scale(0.0910000,-0.0910000)"/><path d="M629 0H409L220 462H216Q219 420 221.5 369.5Q224 319 224 281V0H59V714H278L466 263H470Q468 301 465.5 349.5Q463 398 463 436V714H629Z" transform="translate(355.3550,0) scale(0.0910000,-0.0910000)"/><path d="M303 418H566V33Q454 -10 326 -10Q193 -10 116.0 84.5Q39 179 39 359Q39 473 76.0 554.5Q113 636 184.0 680.0Q255 724 356 724Q415 724 465.5 711.5Q516 699 552 679L500 536Q436 574 361 574Q289 574 258.0 515.0Q227 456 227 354Q227 250 256.5 195.5Q286 141 338 141Q349 141 365.0 143.0Q381 145 392 149V274H303Z" transform="translate(417.9630,0) scale(0.0910000,-0.0910000)"/><path d="M40 81Q40 128 66.0 151.5Q92 175 137 175Q180 175 205.5 151.5Q231 128 231 81Q231 35 205.0 11.5Q179 -12 137 -12Q94 -12 67.0 11.5Q40 35 40 81Z" transform="translate(474.0190,0) scale(0.0910000,-0.0910000)"/></g></svg>